<svg width="34" height="32" viewBox="0 0 34 32" fill="none" xmlns="http://www.w3.org/2000/svg">
<g id="Group 3">
<path id="Vector" d="M0.823602 26.3242C1.39853 27.0893 2.25331 27.7288 3.29707 28.1749C4.34083 28.621 5.53454 28.857 6.75126 28.8577H13.8055V29.5143C13.8055 30.0368 14.0965 30.5379 14.6143 30.9074C15.1322 31.2768 15.8345 31.4844 16.5669 31.4844C17.2992 31.4844 18.0016 31.2768 18.5194 30.9074C19.0373 30.5379 19.3282 30.0368 19.3282 29.5143V28.8577H26.3825C27.5994 28.8568 28.7932 28.6207 29.837 28.1744C30.8808 27.728 31.7355 27.0882 32.3102 26.3229C32.8951 25.5488 33.1755 24.6761 33.1217 23.7975C33.0679 22.9189 32.6819 22.067 32.0046 21.3322L29.9336 19.0864C30.2505 18.8549 30.5201 18.5927 30.7344 18.3076C31.155 17.7523 31.357 17.126 31.3187 16.4954C31.2805 15.8648 31.0035 15.2533 30.5171 14.7261L27.3306 11.2667C27.4754 11.1314 27.6053 10.9883 27.719 10.8386C28.1417 10.2895 28.3498 9.66945 28.3217 9.04333C28.2935 8.4172 28.03 7.80798 27.5588 7.27938C27.4906 7.20527 27.4168 7.13381 27.3379 7.0653L20.3444 1.16575C20.3002 1.13029 20.2487 1.09483 20.21 1.06199C19.2374 0.381313 17.9293 0 16.5669 0C15.2044 0 13.8964 0.381313 12.9238 1.06199C12.8796 1.09351 12.8354 1.12766 12.7949 1.16181L5.77007 7.05611C5.69161 7.12364 5.61847 7.19423 5.551 7.26756C5.07592 7.7955 4.80896 8.405 4.77819 9.03199C4.74742 9.65899 4.95396 10.2803 5.37612 10.8307C5.49647 10.9889 5.63437 11.1399 5.78848 11.2825L2.61663 14.7221C2.12913 15.2489 1.85082 15.8601 1.81128 16.4907C1.77173 17.1214 1.97243 17.7479 2.39204 18.3036C2.60634 18.5888 2.87592 18.851 3.19283 19.0824L1.12183 21.3283C0.44423 22.0641 0.0586972 22.9172 0.00618774 23.7969C-0.0463217 24.6765 0.236153 25.5499 0.823602 26.3242ZM5.74246 23.4927L9.66539 19.2374C9.9161 18.9653 10.0683 18.653 10.1085 18.3286C10.1486 18.0042 10.0754 17.6778 9.8954 17.3785C9.71538 17.0792 9.43419 16.8165 9.07697 16.6137C8.71975 16.411 8.29764 16.2746 7.84843 16.2167L11.9647 11.75C12.1778 11.5141 12.3181 11.2485 12.3763 10.971C12.4345 10.6934 12.4092 10.4101 12.3021 10.1401C12.195 9.86999 12.0086 9.61927 11.7552 9.40457C11.5018 9.18986 11.1873 9.01609 10.8325 8.8948L16.5669 4.08138L22.2736 8.8948C21.9196 9.01693 21.6063 9.1916 21.3545 9.40711C21.1027 9.62262 20.9184 9.87401 20.8138 10.1445C20.7093 10.4149 20.6869 10.6982 20.7481 10.9753C20.8094 11.2524 20.9529 11.517 21.1691 11.7513L25.2872 16.2167C24.838 16.2746 24.4159 16.411 24.0586 16.6137C23.7014 16.8165 23.4202 17.0792 23.2402 17.3785C23.0602 17.6778 22.987 18.0042 23.0271 18.3286C23.0673 18.653 23.2195 18.9653 23.4702 19.2374L27.395 23.4927C27.528 23.6335 27.6038 23.7979 27.6139 23.9676C27.624 24.1373 27.5679 24.3057 27.4521 24.454C27.3532 24.5949 27.2009 24.7132 27.0124 24.7954C26.824 24.8776 26.607 24.9204 26.3862 24.9189H6.75126C6.53042 24.9204 6.31344 24.8776 6.12501 24.7954C5.93658 24.7132 5.78427 24.5949 5.68539 24.454C5.56949 24.3057 5.51347 24.1373 5.52355 23.9676C5.53362 23.7979 5.60939 23.6335 5.74246 23.4927Z" fill="#54C352"/>
<path id="Vector_2" d="M15.6464 22.2909C17.1715 22.2909 18.4078 21.4089 18.4078 20.3209C18.4078 19.2328 17.1715 18.3508 15.6464 18.3508C14.1214 18.3508 12.8851 19.2328 12.8851 20.3209C12.8851 21.4089 14.1214 22.2909 15.6464 22.2909Z" fill="#54C352"/>
<path id="Vector_3" d="M17.4873 15.7242C19.0124 15.7242 20.2487 14.8422 20.2487 13.7542C20.2487 12.6662 19.0124 11.7842 17.4873 11.7842C15.9623 11.7842 14.726 12.6662 14.726 13.7542C14.726 14.8422 15.9623 15.7242 17.4873 15.7242Z" fill="#54C352"/>
</g>
</svg>
